<svg width="73" height="79" viewBox="0 0 73 79" fill="none" xmlns="http://www.w3.org/2000/svg">
<style>
  path {
      fill: black;
    }
 @media (prefers-color-scheme: dark) {
    
      path {
        fill: white;
      }
    }
</style>
<path fill-rule="evenodd" clip-rule="evenodd" d="M61.032 54.624C62.184 54.624 62.76 56.32 62.76 59.712C62.76 64.64 61.416 68.864 58.728 72.384C56.04 75.904 52.616 77.664 48.456 77.664C43.272 77.664 39.4 76.128 36.84 73.056C35.9013 71.9296 35.1347 70.631 34.5402 69.1604C33.9608 70.4706 33.2395 71.6838 32.376 72.8C29.816 76.192 25.848 77.888 20.472 77.888C15.096 77.888 10.84 76.48 7.70399 73.664C4.56799 70.848 2.99998 66.656 2.99998 61.088V38.9127H0.0285645C0.0285645 37.6967 0.252562 36.8327 0.700562 36.3207C1.05593 35.8469 1.82241 35.5923 2.99998 35.557V25.856C2.99998 23.936 3.47998 22.496 4.43998 21.536C5.39998 20.512 6.61598 20 8.08799 20C9.55999 20 10.744 20.448 11.64 21.344V35.552H33V23.904C33 15.648 33.864 9.6 35.592 5.76C37.32 1.92 40.36 0 44.712 0C51.048 0 54.216 4.288 54.216 12.864C54.216 19.328 52.936 24.512 50.376 28.416C47.88 32.32 45 35.232 41.736 37.152V62.88C41.736 66.528 42.44 69.28 43.848 71.136C45.256 72.992 47.176 73.92 49.608 73.92C52.04 73.92 54.312 72.448 56.424 69.504C58.536 66.56 59.592 61.792 59.592 55.2C59.72 54.816 60.2 54.624 61.032 54.624ZM30.36 69.728C31.7939 67.4536 32.6739 64.0904 33 59.6386V38.912L11.64 38.9127V63.104C11.64 66.624 12.632 69.344 14.616 71.264C16.664 73.184 19 74.144 21.624 74.144C25.592 74.144 28.504 72.672 30.36 69.728ZM50.088 12.96C50.088 6.816 48.552 3.744 45.48 3.744C44.712 3.744 44.104 4 43.656 4.512C43.272 5.024 42.92 6.304 42.6 8.352C42.024 11.488 41.736 19.744 41.736 33.12C47.304 29.088 50.088 22.368 50.088 12.96Z" fill="black"/>
<path d="M64.496 76.848C65.392 77.744 66.48 78.192 67.76 78.192C69.04 78.192 70.128 77.776 71.024 76.944C71.92 76.048 72.368 74.96 72.368 73.68C72.368 72.4 71.92 71.312 71.024 70.416C70.128 69.52 69.04 69.072 67.76 69.072C66.48 69.072 65.392 69.52 64.496 70.416C63.664 71.312 63.248 72.4 63.248 73.68C63.248 74.896 63.664 75.952 64.496 76.848Z" fill="black"/>
</svg>
