<svg width="77" height="40" viewBox="0 0 77 40" fill="none" xmlns="http://www.w3.org/2000/svg">
<path d="M0.375 13.128C0.375 12.168 0.615 11.448 1.095 10.968C1.575 10.456 2.183 10.2 2.919 10.2C3.655 10.2 4.247 10.424 4.695 10.872V17.976H11.271C11.943 17.976 12.375 18.104 12.567 18.36C12.791 18.616 12.903 19.048 12.903 19.656H4.695V31.752C4.695 33.512 5.191 34.872 6.183 35.832C7.207 36.792 8.375 37.272 9.687 37.272C11.671 37.272 13.127 36.536 14.055 35.064C14.983 33.592 15.447 31.208 15.447 27.912C15.511 27.72 15.751 27.624 16.167 27.624C16.743 27.624 17.031 28.472 17.031 30.168C17.031 32.76 16.375 34.904 15.063 36.6C13.783 38.296 11.799 39.144 9.111 39.144C6.423 39.144 4.295 38.44 2.727 37.032C1.159 35.624 0.375 33.528 0.375 30.744V13.128ZM29.8185 18.696C30.2345 17.768 30.8905 17.304 31.7865 17.304C32.7145 17.304 33.4025 17.528 33.8505 17.976V31.752C33.8505 33.576 34.1385 34.952 34.7145 35.88C35.2905 36.808 36.0745 37.272 37.0665 37.272C40.0745 37.272 41.5785 34.152 41.5785 27.912C41.6105 27.72 41.8505 27.624 42.2985 27.624C42.8745 27.624 43.1625 28.472 43.1625 30.168C43.1625 32.888 42.5705 35.064 41.3865 36.696C40.2345 38.328 38.6025 39.144 36.4905 39.144C33.2585 39.144 31.1145 37.72 30.0585 34.872C29.4505 36.184 28.6185 37.224 27.5625 37.992C26.5065 38.76 25.3065 39.144 23.9625 39.144C18.3625 39.144 15.5625 35.48 15.5625 28.152C15.5625 24.44 16.4265 21.704 18.1545 19.944C19.9145 18.184 22.2345 17.304 25.1145 17.304C27.3225 17.304 28.8905 17.768 29.8185 18.696ZM20.7945 34.056C21.2425 35.464 21.7545 36.36 22.3305 36.744C22.9065 37.096 23.6745 37.272 24.6345 37.272C25.5945 37.272 26.6345 36.68 27.7545 35.496C28.9065 34.28 29.4825 32.712 29.4825 30.792V24.216C29.4825 22.712 29.0825 21.496 28.2825 20.568C27.5145 19.64 26.6345 19.176 25.6425 19.176C24.6825 19.176 23.9145 19.272 23.3385 19.464C22.7625 19.656 22.2185 20.056 21.7065 20.664C20.6505 21.816 20.1225 24.312 20.1225 28.152C20.1225 30.68 20.3465 32.648 20.7945 34.056ZM55.7839 27.624C56.3599 27.624 56.6479 28.472 56.6479 30.168C56.6479 32.632 55.9759 34.744 54.6319 36.504C53.2879 38.264 51.5759 39.144 49.4959 39.144C46.9039 39.144 44.9679 38.376 43.6879 36.84C42.4079 35.304 41.7679 33.128 41.7679 30.312V12.264C41.7679 8.136 42.1999 5.112 43.0639 3.192C43.9279 1.272 45.4479 0.311997 47.6239 0.311997C50.7919 0.311997 52.3759 2.456 52.3759 6.744C52.3759 9.976 51.7359 12.568 50.4559 14.52C49.2079 16.472 47.7679 17.928 46.1359 18.888V31.752C46.1359 33.576 46.4879 34.952 47.1919 35.88C47.8959 36.808 48.8559 37.272 50.0719 37.272C51.2879 37.272 52.4239 36.536 53.4799 35.064C54.5359 33.592 55.0639 31.208 55.0639 27.912C55.1279 27.72 55.3679 27.624 55.7839 27.624ZM50.3119 6.792C50.3119 3.72 49.5439 2.184 48.0079 2.184C47.6239 2.184 47.3199 2.312 47.0959 2.568C46.9039 2.824 46.7279 3.464 46.5679 4.488C46.2799 6.056 46.1359 10.184 46.1359 16.872C48.9199 14.856 50.3119 11.496 50.3119 6.792ZM75.2381 28.2C75.9101 28.2 76.2461 28.712 76.2461 29.736C76.2461 32.104 75.4141 34.264 73.7501 36.216C72.1181 38.168 69.6221 39.144 66.2621 39.144C62.9021 39.144 60.1981 38.248 58.1501 36.456C56.1341 34.632 55.1261 31.976 55.1261 28.488C55.1261 24.968 56.0221 22.232 57.8141 20.28C59.6061 18.296 61.8941 17.304 64.6781 17.304C66.6941 17.304 68.1661 17.848 69.0941 18.936C70.0221 19.992 70.4861 21.256 70.4861 22.728C70.4861 25.128 69.4781 27.128 67.4621 28.728C65.4781 30.296 62.9341 31.08 59.8301 31.08C60.1181 33.128 60.8541 34.68 62.0381 35.736C63.2541 36.76 64.8381 37.272 66.7901 37.272C68.7741 37.272 70.5501 36.536 72.1181 35.064C73.7181 33.56 74.5181 31.368 74.5181 28.488C74.5501 28.296 74.7901 28.2 75.2381 28.2ZM59.6861 28.872V29.304C61.6701 29.048 63.3821 28.424 64.8221 27.432C66.2941 26.44 67.0301 24.968 67.0301 23.016C67.0301 21.768 66.7581 20.824 66.2141 20.184C65.6701 19.512 64.9021 19.176 63.9101 19.176C62.4061 19.176 61.3181 19.912 60.6461 21.384C60.0061 22.856 59.6861 25.352 59.6861 28.872Z" fill="black"/>
</svg>
